<?xml version="1.0" encoding="UTF-8" standalone="no"?>
<svg
   version="1.0"
   width="64pt"
   height="64pt"
   viewBox="0 0 64 64"
   preserveAspectRatio="xMidYMid"
   id="svg2"
   sodipodi:docname="logo_dokka.svg"
   inkscape:export-filename="00105-354778778-x.png"
   inkscape:export-xdpi="96"
   inkscape:export-ydpi="96"
   inkscape:version="1.4 (86a8ad7, 2024-10-11)"
   xmlns:inkscape="http://www.inkscape.org/namespaces/inkscape"
   xmlns:sodipodi="http://sodipodi.sourceforge.net/DTD/sodipodi-0.dtd"
   xmlns="http://www.w3.org/2000/svg"
   xmlns:svg="http://www.w3.org/2000/svg">
  <defs
     id="defs2" />
  <sodipodi:namedview
     id="namedview2"
     pagecolor="#000000"
     bordercolor="#000000"
     borderopacity="0.25"
     inkscape:showpageshadow="2"
     inkscape:pageopacity="0.0"
     inkscape:pagecheckerboard="0"
     inkscape:deskcolor="#d1d1d1"
     inkscape:document-units="pt"
     inkscape:zoom="1.7094727"
     inkscape:cx="341.62582"
     inkscape:cy="341.33333"
     inkscape:window-width="2560"
     inkscape:window-height="1369"
     inkscape:window-x="-8"
     inkscape:window-y="-8"
     inkscape:window-maximized="1"
     inkscape:current-layer="svg2" />
  <g
     transform="matrix(0.02408723,0,0,-0.02396315,-26.655636,87.784063)"
     fill="#000000"
     stroke="none"
     id="g2"
     style="fill:#6683f2;fill-opacity:1">
    <path
       d="m 2280,3440 c -207,-32 -419,-201 -515,-413 -34,-74 -73,-245 -90,-400 -30,-259 -52,-346 -124,-487 -27,-52 -68,-142 -91,-200 -73,-184 -150,-310 -234,-388 l -45,-41 32,6 c 18,3 78,18 134,33 56,15 104,25 107,23 8,-8 -4,-54 -24,-92 -27,-54 -97,-118 -165,-151 -49,-24 -55,-30 -33,-30 75,0 216,41 324,96 84,43 99,42 168,-16 26,-22 52,-40 57,-40 4,0 13,19 19,43 41,163 114,320 223,482 64,95 203,240 311,325 118,92 110,129 -46,210 -131,68 -180,106 -207,163 -84,174 27,425 230,516 80,37 258,18 371,-40 59,-30 125,-96 139,-137 6,-20 14,-40 18,-45 4,-4 45,-12 92,-17 82,-10 149,-27 149,-36 0,-3 -50,-53 -110,-111 -92,-88 -116,-118 -145,-178 -69,-142 -67,-228 10,-435 109,-293 131,-396 146,-660 7,-113 13,-207 15,-209 5,-6 138,49 161,67 23,17 23,19 13,126 -22,225 -76,392 -201,621 -89,162 -109,218 -109,309 0,89 30,153 110,236 94,98 193,150 370,195 36,9 114,32 175,51 77,25 119,34 142,29 42,-8 43,6 3,68 -41,65 -97,90 -282,127 -290,58 -338,76 -453,170 -38,32 -101,78 -139,103 -144,96 -358,150 -506,127 z"
       id="path1"
       style="fill:#6683f2;fill-opacity:1" />
    <path
       d="m 2589,2987 c -18,-12 -46,-43 -62,-69 l -29,-47 62,-71 c 36,-40 71,-70 82,-70 10,0 43,24 74,54 49,47 54,56 48,82 -11,46 -41,89 -82,118 -46,32 -50,32 -93,3 z"
       id="path2"
       style="fill:#6683f2;fill-opacity:1" />
  </g>
</svg>
